<mxfile host="app.diagrams.net" modified="2024-06-24T14:03:55.462Z" agent="Mozilla/5.0 (Windows NT 10.0; Win64; x64) AppleWebKit/537.36 (KHTML, like Gecko) Chrome/126.0.0.0 Safari/537.36 Edg/126.0.0.0" etag="jHGetHIF1PKmdoljA2fQ" version="24.6.2" type="github">
  <diagram name="第 1 页" id="HEX5fU9RVIQqEIzlnjxo">
    <mxGraphModel dx="1988" dy="1111" grid="1" gridSize="10" guides="1" tooltips="1" connect="1" arrows="1" fold="1" page="0" pageScale="1" pageWidth="827" pageHeight="1169" math="0" shadow="0">
      <root>
        <mxCell id="0" />
        <mxCell id="1" parent="0" />
        <mxCell id="TOTLA-AlnjFIG-S2eajY-12" style="edgeStyle=orthogonalEdgeStyle;rounded=0;orthogonalLoop=1;jettySize=auto;html=1;" parent="1" source="TOTLA-AlnjFIG-S2eajY-1" target="TOTLA-AlnjFIG-S2eajY-4" edge="1">
          <mxGeometry relative="1" as="geometry" />
        </mxCell>
        <mxCell id="TOTLA-AlnjFIG-S2eajY-13" style="edgeStyle=orthogonalEdgeStyle;rounded=0;orthogonalLoop=1;jettySize=auto;html=1;" parent="1" source="TOTLA-AlnjFIG-S2eajY-1" target="TOTLA-AlnjFIG-S2eajY-5" edge="1">
          <mxGeometry relative="1" as="geometry" />
        </mxCell>
        <mxCell id="TOTLA-AlnjFIG-S2eajY-14" style="edgeStyle=orthogonalEdgeStyle;rounded=0;orthogonalLoop=1;jettySize=auto;html=1;" parent="1" source="TOTLA-AlnjFIG-S2eajY-1" target="TOTLA-AlnjFIG-S2eajY-6" edge="1">
          <mxGeometry relative="1" as="geometry" />
        </mxCell>
        <mxCell id="TOTLA-AlnjFIG-S2eajY-1" value="&lt;font style=&quot;font-size: 20px;&quot;&gt;image patches&lt;/font&gt;" style="rounded=0;whiteSpace=wrap;html=1;fillColor=#ffe6cc;strokeColor=#d79b00;" parent="1" vertex="1">
          <mxGeometry x="-170" y="330" width="250" height="70" as="geometry" />
        </mxCell>
        <mxCell id="TOTLA-AlnjFIG-S2eajY-18" style="edgeStyle=orthogonalEdgeStyle;rounded=0;orthogonalLoop=1;jettySize=auto;html=1;exitX=0.5;exitY=1;exitDx=0;exitDy=0;entryX=0.5;entryY=0;entryDx=0;entryDy=0;" parent="1" source="TOTLA-AlnjFIG-S2eajY-2" target="TOTLA-AlnjFIG-S2eajY-7" edge="1">
          <mxGeometry relative="1" as="geometry" />
        </mxCell>
        <mxCell id="TOTLA-AlnjFIG-S2eajY-19" style="edgeStyle=orthogonalEdgeStyle;rounded=0;orthogonalLoop=1;jettySize=auto;html=1;exitX=0.5;exitY=1;exitDx=0;exitDy=0;entryX=0.5;entryY=0;entryDx=0;entryDy=0;" parent="1" source="TOTLA-AlnjFIG-S2eajY-2" target="TOTLA-AlnjFIG-S2eajY-8" edge="1">
          <mxGeometry relative="1" as="geometry" />
        </mxCell>
        <mxCell id="TOTLA-AlnjFIG-S2eajY-20" style="edgeStyle=orthogonalEdgeStyle;rounded=0;orthogonalLoop=1;jettySize=auto;html=1;exitX=0.5;exitY=1;exitDx=0;exitDy=0;entryX=0.5;entryY=0;entryDx=0;entryDy=0;" parent="1" source="TOTLA-AlnjFIG-S2eajY-2" target="TOTLA-AlnjFIG-S2eajY-9" edge="1">
          <mxGeometry relative="1" as="geometry" />
        </mxCell>
        <mxCell id="TOTLA-AlnjFIG-S2eajY-2" value="&lt;font style=&quot;font-size: 20px;&quot;&gt;clip + t5 embeds&lt;/font&gt;" style="rounded=0;whiteSpace=wrap;html=1;fillColor=#fff2cc;strokeColor=#d6b656;" parent="1" vertex="1">
          <mxGeometry x="260" y="330" width="250" height="70" as="geometry" />
        </mxCell>
        <mxCell id="TOTLA-AlnjFIG-S2eajY-40" style="edgeStyle=orthogonalEdgeStyle;rounded=0;orthogonalLoop=1;jettySize=auto;html=1;exitX=0.5;exitY=1;exitDx=0;exitDy=0;entryX=0.5;entryY=0;entryDx=0;entryDy=0;jumpStyle=arc;" parent="1" source="TOTLA-AlnjFIG-S2eajY-4" target="TOTLA-AlnjFIG-S2eajY-24" edge="1">
          <mxGeometry relative="1" as="geometry">
            <Array as="points">
              <mxPoint x="-185" y="600" />
              <mxPoint x="65" y="600" />
            </Array>
          </mxGeometry>
        </mxCell>
        <mxCell id="TOTLA-AlnjFIG-S2eajY-4" value="&lt;font style=&quot;font-size: 20px;&quot;&gt;to_q&lt;/font&gt;" style="ellipse;whiteSpace=wrap;html=1;fillColor=#d5e8d4;strokeColor=#82b366;" parent="1" vertex="1">
          <mxGeometry x="-240" y="480" width="110" height="60" as="geometry" />
        </mxCell>
        <mxCell id="TOTLA-AlnjFIG-S2eajY-42" style="edgeStyle=orthogonalEdgeStyle;rounded=0;orthogonalLoop=1;jettySize=auto;html=1;exitX=0.5;exitY=1;exitDx=0;exitDy=0;entryX=0.5;entryY=0;entryDx=0;entryDy=0;jumpStyle=arc;" parent="1" source="TOTLA-AlnjFIG-S2eajY-5" target="TOTLA-AlnjFIG-S2eajY-25" edge="1">
          <mxGeometry relative="1" as="geometry">
            <Array as="points">
              <mxPoint x="-45" y="580" />
              <mxPoint x="385" y="580" />
            </Array>
          </mxGeometry>
        </mxCell>
        <mxCell id="TOTLA-AlnjFIG-S2eajY-5" value="&lt;font style=&quot;font-size: 20px;&quot;&gt;to_k&lt;/font&gt;" style="ellipse;whiteSpace=wrap;html=1;fillColor=#d5e8d4;strokeColor=#82b366;" parent="1" vertex="1">
          <mxGeometry x="-100" y="480" width="110" height="60" as="geometry" />
        </mxCell>
        <mxCell id="TOTLA-AlnjFIG-S2eajY-43" style="edgeStyle=orthogonalEdgeStyle;rounded=0;orthogonalLoop=1;jettySize=auto;html=1;exitX=0.5;exitY=1;exitDx=0;exitDy=0;entryX=0.5;entryY=0;entryDx=0;entryDy=0;jumpStyle=arc;" parent="1" source="TOTLA-AlnjFIG-S2eajY-6" target="TOTLA-AlnjFIG-S2eajY-26" edge="1">
          <mxGeometry relative="1" as="geometry">
            <Array as="points">
              <mxPoint x="95" y="560" />
              <mxPoint x="705" y="560" />
            </Array>
          </mxGeometry>
        </mxCell>
        <mxCell id="TOTLA-AlnjFIG-S2eajY-6" value="&lt;font style=&quot;font-size: 20px;&quot;&gt;to_v&lt;/font&gt;" style="ellipse;whiteSpace=wrap;html=1;fillColor=#d5e8d4;strokeColor=#82b366;" parent="1" vertex="1">
          <mxGeometry x="40" y="480" width="110" height="60" as="geometry" />
        </mxCell>
        <mxCell id="TOTLA-AlnjFIG-S2eajY-41" style="edgeStyle=orthogonalEdgeStyle;rounded=0;orthogonalLoop=1;jettySize=auto;html=1;exitX=0.5;exitY=1;exitDx=0;exitDy=0;entryX=0.5;entryY=0;entryDx=0;entryDy=0;jumpStyle=arc;" parent="1" source="TOTLA-AlnjFIG-S2eajY-7" target="TOTLA-AlnjFIG-S2eajY-24" edge="1">
          <mxGeometry relative="1" as="geometry">
            <Array as="points">
              <mxPoint x="245" y="600" />
              <mxPoint x="65" y="600" />
            </Array>
          </mxGeometry>
        </mxCell>
        <mxCell id="TOTLA-AlnjFIG-S2eajY-7" value="&lt;font style=&quot;font-size: 20px;&quot;&gt;add_q_proj&lt;/font&gt;" style="ellipse;whiteSpace=wrap;html=1;fillColor=#d5e8d4;strokeColor=#82b366;" parent="1" vertex="1">
          <mxGeometry x="190" y="480" width="110" height="60" as="geometry" />
        </mxCell>
        <mxCell id="TOTLA-AlnjFIG-S2eajY-44" style="edgeStyle=orthogonalEdgeStyle;rounded=0;orthogonalLoop=1;jettySize=auto;html=1;exitX=0.5;exitY=1;exitDx=0;exitDy=0;entryX=0.5;entryY=0;entryDx=0;entryDy=0;jumpStyle=arc;" parent="1" source="TOTLA-AlnjFIG-S2eajY-8" target="TOTLA-AlnjFIG-S2eajY-25" edge="1">
          <mxGeometry relative="1" as="geometry" />
        </mxCell>
        <mxCell id="TOTLA-AlnjFIG-S2eajY-8" value="&lt;span style=&quot;font-size: 20px;&quot;&gt;add_k_proj&lt;/span&gt;" style="ellipse;whiteSpace=wrap;html=1;fillColor=#d5e8d4;strokeColor=#82b366;" parent="1" vertex="1">
          <mxGeometry x="330" y="480" width="110" height="60" as="geometry" />
        </mxCell>
        <mxCell id="TOTLA-AlnjFIG-S2eajY-45" style="edgeStyle=orthogonalEdgeStyle;rounded=0;orthogonalLoop=1;jettySize=auto;html=1;exitX=0.5;exitY=1;exitDx=0;exitDy=0;entryX=0.5;entryY=0;entryDx=0;entryDy=0;jumpStyle=arc;" parent="1" source="TOTLA-AlnjFIG-S2eajY-9" target="TOTLA-AlnjFIG-S2eajY-26" edge="1">
          <mxGeometry relative="1" as="geometry">
            <Array as="points">
              <mxPoint x="525" y="560" />
              <mxPoint x="705" y="560" />
            </Array>
          </mxGeometry>
        </mxCell>
        <mxCell id="TOTLA-AlnjFIG-S2eajY-9" value="&lt;span style=&quot;font-size: 20px;&quot;&gt;add_v_proj&lt;/span&gt;" style="ellipse;whiteSpace=wrap;html=1;fillColor=#d5e8d4;strokeColor=#82b366;" parent="1" vertex="1">
          <mxGeometry x="470" y="480" width="110" height="60" as="geometry" />
        </mxCell>
        <mxCell id="TOTLA-AlnjFIG-S2eajY-50" style="edgeStyle=orthogonalEdgeStyle;rounded=0;orthogonalLoop=1;jettySize=auto;html=1;exitX=0.5;exitY=1;exitDx=0;exitDy=0;" parent="1" source="TOTLA-AlnjFIG-S2eajY-24" target="TOTLA-AlnjFIG-S2eajY-48" edge="1">
          <mxGeometry relative="1" as="geometry" />
        </mxCell>
        <mxCell id="TOTLA-AlnjFIG-S2eajY-24" value="&lt;font style=&quot;font-size: 20px;&quot;&gt;Query&lt;/font&gt;" style="rounded=1;whiteSpace=wrap;html=1;fillColor=#dae8fc;strokeColor=#6c8ebf;" parent="1" vertex="1">
          <mxGeometry x="-35" y="630" width="200" height="60" as="geometry" />
        </mxCell>
        <mxCell id="TOTLA-AlnjFIG-S2eajY-52" style="edgeStyle=orthogonalEdgeStyle;rounded=0;orthogonalLoop=1;jettySize=auto;html=1;exitX=0.5;exitY=1;exitDx=0;exitDy=0;entryX=0.5;entryY=0;entryDx=0;entryDy=0;" parent="1" source="TOTLA-AlnjFIG-S2eajY-25" target="TOTLA-AlnjFIG-S2eajY-48" edge="1">
          <mxGeometry relative="1" as="geometry" />
        </mxCell>
        <mxCell id="TOTLA-AlnjFIG-S2eajY-25" value="&lt;font style=&quot;font-size: 20px;&quot;&gt;Key&lt;/font&gt;" style="rounded=1;whiteSpace=wrap;html=1;fillColor=#dae8fc;strokeColor=#6c8ebf;" parent="1" vertex="1">
          <mxGeometry x="285" y="630" width="200" height="60" as="geometry" />
        </mxCell>
        <mxCell id="TOTLA-AlnjFIG-S2eajY-53" style="edgeStyle=orthogonalEdgeStyle;rounded=0;orthogonalLoop=1;jettySize=auto;html=1;exitX=0.5;exitY=1;exitDx=0;exitDy=0;entryX=0.5;entryY=0;entryDx=0;entryDy=0;" parent="1" source="TOTLA-AlnjFIG-S2eajY-26" target="TOTLA-AlnjFIG-S2eajY-48" edge="1">
          <mxGeometry relative="1" as="geometry" />
        </mxCell>
        <mxCell id="TOTLA-AlnjFIG-S2eajY-26" value="&lt;font style=&quot;font-size: 20px;&quot;&gt;Value&lt;/font&gt;" style="rounded=1;whiteSpace=wrap;html=1;fillColor=#dae8fc;strokeColor=#6c8ebf;" parent="1" vertex="1">
          <mxGeometry x="605" y="630" width="200" height="60" as="geometry" />
        </mxCell>
        <mxCell id="TOTLA-AlnjFIG-S2eajY-34" style="edgeStyle=orthogonalEdgeStyle;rounded=0;orthogonalLoop=1;jettySize=auto;html=1;exitX=0.5;exitY=1;exitDx=0;exitDy=0;entryX=0.5;entryY=0;entryDx=0;entryDy=0;" parent="1" source="TOTLA-AlnjFIG-S2eajY-36" target="TOTLA-AlnjFIG-S2eajY-38" edge="1">
          <mxGeometry relative="1" as="geometry" />
        </mxCell>
        <mxCell id="TOTLA-AlnjFIG-S2eajY-35" style="edgeStyle=orthogonalEdgeStyle;rounded=0;orthogonalLoop=1;jettySize=auto;html=1;exitX=0.5;exitY=1;exitDx=0;exitDy=0;entryX=0.5;entryY=0;entryDx=0;entryDy=0;" parent="1" source="TOTLA-AlnjFIG-S2eajY-36" target="TOTLA-AlnjFIG-S2eajY-39" edge="1">
          <mxGeometry relative="1" as="geometry" />
        </mxCell>
        <mxCell id="TOTLA-AlnjFIG-S2eajY-59" style="edgeStyle=orthogonalEdgeStyle;rounded=0;orthogonalLoop=1;jettySize=auto;html=1;exitX=1;exitY=0.5;exitDx=0;exitDy=0;entryX=1;entryY=0.5;entryDx=0;entryDy=0;fillColor=#f8cecc;strokeColor=#b85450;" parent="1" source="TOTLA-AlnjFIG-S2eajY-36" target="TOTLA-AlnjFIG-S2eajY-58" edge="1">
          <mxGeometry relative="1" as="geometry">
            <Array as="points">
              <mxPoint x="1020" y="365" />
              <mxPoint x="1020" y="875" />
            </Array>
          </mxGeometry>
        </mxCell>
        <mxCell id="TOTLA-AlnjFIG-S2eajY-36" value="&lt;font style=&quot;font-size: 20px;&quot;&gt;byt5 embeds&lt;/font&gt;" style="rounded=0;whiteSpace=wrap;html=1;fillColor=#f8cecc;strokeColor=#b85450;" parent="1" vertex="1">
          <mxGeometry x="680" y="330" width="250" height="70" as="geometry" />
        </mxCell>
        <mxCell id="TOTLA-AlnjFIG-S2eajY-46" style="edgeStyle=orthogonalEdgeStyle;rounded=0;orthogonalLoop=1;jettySize=auto;html=1;exitX=0.5;exitY=1;exitDx=0;exitDy=0;entryX=0.5;entryY=0;entryDx=0;entryDy=0;fillColor=#f8cecc;strokeColor=#b85450;jumpStyle=arc;" parent="1" source="TOTLA-AlnjFIG-S2eajY-38" target="TOTLA-AlnjFIG-S2eajY-25" edge="1">
          <mxGeometry relative="1" as="geometry">
            <Array as="points">
              <mxPoint x="805" y="580" />
              <mxPoint x="385" y="580" />
            </Array>
          </mxGeometry>
        </mxCell>
        <mxCell id="TOTLA-AlnjFIG-S2eajY-38" value="&lt;span style=&quot;font-size: 20px;&quot;&gt;add_k_proj&lt;/span&gt;" style="ellipse;whiteSpace=wrap;html=1;fillColor=#d5e8d4;strokeColor=#82b366;" parent="1" vertex="1">
          <mxGeometry x="750" y="480" width="110" height="60" as="geometry" />
        </mxCell>
        <mxCell id="TOTLA-AlnjFIG-S2eajY-47" style="edgeStyle=orthogonalEdgeStyle;rounded=0;orthogonalLoop=1;jettySize=auto;html=1;exitX=0.5;exitY=1;exitDx=0;exitDy=0;entryX=0.5;entryY=0;entryDx=0;entryDy=0;fillColor=#f8cecc;strokeColor=#b85450;jumpStyle=arc;" parent="1" source="TOTLA-AlnjFIG-S2eajY-39" target="TOTLA-AlnjFIG-S2eajY-26" edge="1">
          <mxGeometry relative="1" as="geometry">
            <Array as="points">
              <mxPoint x="945" y="600" />
              <mxPoint x="705" y="600" />
            </Array>
          </mxGeometry>
        </mxCell>
        <mxCell id="TOTLA-AlnjFIG-S2eajY-39" value="&lt;span style=&quot;font-size: 20px;&quot;&gt;add_v_proj&lt;/span&gt;" style="ellipse;whiteSpace=wrap;html=1;fillColor=#d5e8d4;strokeColor=#82b366;" parent="1" vertex="1">
          <mxGeometry x="890" y="480" width="110" height="60" as="geometry" />
        </mxCell>
        <mxCell id="TOTLA-AlnjFIG-S2eajY-56" style="edgeStyle=orthogonalEdgeStyle;rounded=0;orthogonalLoop=1;jettySize=auto;html=1;exitX=0.5;exitY=1;exitDx=0;exitDy=0;" parent="1" source="TOTLA-AlnjFIG-S2eajY-48" target="TOTLA-AlnjFIG-S2eajY-54" edge="1">
          <mxGeometry relative="1" as="geometry" />
        </mxCell>
        <mxCell id="TOTLA-AlnjFIG-S2eajY-57" style="edgeStyle=orthogonalEdgeStyle;rounded=0;orthogonalLoop=1;jettySize=auto;html=1;exitX=0.5;exitY=1;exitDx=0;exitDy=0;entryX=0.5;entryY=0;entryDx=0;entryDy=0;" parent="1" source="TOTLA-AlnjFIG-S2eajY-48" target="TOTLA-AlnjFIG-S2eajY-55" edge="1">
          <mxGeometry relative="1" as="geometry" />
        </mxCell>
        <mxCell id="TOTLA-AlnjFIG-S2eajY-48" value="&lt;font style=&quot;font-size: 24px;&quot;&gt;Attention&lt;/font&gt;" style="rounded=0;whiteSpace=wrap;html=1;" parent="1" vertex="1">
          <mxGeometry x="30" y="730" width="710" height="70" as="geometry" />
        </mxCell>
        <mxCell id="TOTLA-AlnjFIG-S2eajY-54" value="&lt;font style=&quot;font-size: 20px;&quot;&gt;image patches&lt;/font&gt;" style="rounded=0;whiteSpace=wrap;html=1;fillColor=#ffe6cc;strokeColor=#d79b00;" parent="1" vertex="1">
          <mxGeometry x="-170" y="840" width="250" height="70" as="geometry" />
        </mxCell>
        <mxCell id="TOTLA-AlnjFIG-S2eajY-55" value="&lt;font style=&quot;font-size: 20px;&quot;&gt;clip + t5 embeds&lt;/font&gt;" style="rounded=0;whiteSpace=wrap;html=1;fillColor=#fff2cc;strokeColor=#d6b656;" parent="1" vertex="1">
          <mxGeometry x="260" y="840" width="250" height="70" as="geometry" />
        </mxCell>
        <mxCell id="TOTLA-AlnjFIG-S2eajY-58" value="&lt;font style=&quot;font-size: 20px;&quot;&gt;byt5 embeds&lt;/font&gt;" style="rounded=0;whiteSpace=wrap;html=1;fillColor=#f8cecc;strokeColor=#b85450;" parent="1" vertex="1">
          <mxGeometry x="680" y="840" width="250" height="70" as="geometry" />
        </mxCell>
      </root>
    </mxGraphModel>
  </diagram>
</mxfile>
